inDegrees=yes
name=ik_lifting_orientations
DataType=double
version=3
OpenSimVersion=4.5-2024-01-10-34fd6af
endheader
time	pelvis_tilt	pelvis_list	pelvis_rotation	pelvis_tx	pelvis_ty	pelvis_tz	hip_flexion_r	hip_adduction_r	hip_rotation_r	knee_angle_r	knee_angle_r_beta	ankle_angle_r	subtalar_angle_r	mtp_angle_r	hip_flexion_l	hip_adduction_l	hip_rotation_l	knee_angle_l	knee_angle_l_beta	ankle_angle_l	subtalar_angle_l	mtp_angle_l	lumbar_extension	lumbar_bending	lumbar_rotation	arm_flex_r	arm_add_r	arm_rot_r	elbow_flex_r	pro_sup_r	wrist_flex_r	wrist_dev_r	arm_flex_l	arm_add_l	arm_rot_l	elbow_flex_l	pro_sup_l	wrist_flex_l	wrist_dev_l
1.14	-0.007721317173778833	0.0177993534274881	90.00959779419183	0	0.9400000003403366	0	44.88048759775158	-10.00058842661577	0	59.5074058320696	1.03860016109009	-5.000044727157883	0	0	44.88048759775158	-10.00058842661577	0	59.5074058320696	1.03860016109009	-5.000044727157883	0	0	-0.02188972156101969	-0.004327565463594124	-0.01285385548842373	1.197940944802704	-10.59200029840745	9.191809209177443	21.49621318808872	-1.448292299774919	0	0	0	-13.48609836223016	0	75.00971760296061	1.448082030352908	0	0
1.15	-0.01483276947654224	-0.003039696925865332	89.98956943309855	0	0.9400000003403366	0	44.88050834562566	-10.000588069837	0	59.50747299746611	1.038601333347403	-5.000044691668491	0	0	44.88050834562566	-10.000588069837	0	59.50747299746611	1.038601333347403	-5.000044691668491	0	0	-0.0195150454015657	-0.02905733125126399	-0.0008967793819565246	1.371482334833401	-10.86488004699634	9.352553733604305	22.21512638087944	-1.448117324018581	0	0	0	-13.48623296391069	0	75.00971594648351	1.447907054595836	0	0
1.16	-0.01739300682355776	-0.0025475262429248	89.98635505631515	0	0.9400000003403366	0	44.88052929150145	-10.00058770988751	0	59.50754081729362	1.038602517026691	-5.000044655871952	0	0	44.88052929150145	-10.00058770988751	0	59.50754081729362	1.038602517026691	-5.000044655871952	0	0	-0.02707677744881624	-0.03551387451313578	0.002970413589208966	1.472832131577021	-11.16370008769099	9.586600776454498	22.99587175020971	-1.447940657968018	0	0	0	-13.4863688774043	0	75.00971427419826	1.447730388544531	0	0
1.17	-0.01048517251909342	0.01605584417245579	90.00475274558445	0	0.9400000003403366	0	44.88056071974611	-10.00058716892195	0	59.50764241244303	1.038604290196552	-5.000044602062365	0	0	44.88056071974611	-10.00058716892195	0	59.50764241244303	1.038604290196552	-5.000044602062365	0	0	-0.02516390122491941	-0.01173186916563743	-0.01219500413684539	1.55047963881158	-11.4702720148641	9.855289232670815	23.87746568879702	-1.44767573391576	0	0	0	-13.48657258605077	0	75.00971176501746	1.44746546449116	0	0
1.18	-0.005218983413717895	0.01214980884829208	90.00549005505285	0	0.9400000003403366	0	44.88059474350188	-10.00058658361224	0	59.50775239257823	1.038606209712023	-5.000044543857809	0	0	44.88059474350188	-10.00058658361224	0	59.50775239257823	1.038606209712023	-5.000044543857809	0	0	-0.02069109889346342	-0.008424940553604206	-0.01261129482264866	1.601123511557346	-11.7444201584137	10.011637507095	24.69341588293006	-1.447388918609904	0	0	0	-13.48679313104497	0	75.00970904861522	1.447178649184099	0	0
1.19	-0.003935309380109763	0.009917714927014012	90.00642470979857	0	0.9400000003403366	0	44.88062974377002	-10.00058598190875	0	59.50786553103002	1.038608184350518	-5.000044484041024	0	0	44.88062974377002	-10.00058598190875	0	59.50786553103002	1.038608184350518	-5.000044484041024	0	0	-0.01968962273077021	-0.008078647502521791	-0.0117891833342278	1.642703935845315	-12.01562851062969	10.22789640801938	25.5729496503375	-1.44709385062772	0	0	0	-13.48702003051283	0	75.00970625424981	1.44688358120067	0	0
1.2	-0.007398011606508576	-0.001701640404302241	89.9916566988894	0	0.9400000003403366	0	44.88064878411923	-10.00058565587819	0	59.50792724703868	1.03860926149807	-5.000044451659313	0	0	44.88064878411923	-10.00058565587819	0	59.50792724703868	1.03860926149807	-5.000044451659313	0	0	-0.01769081432574485	-0.01758262972219219	0.003532683926523367	1.645771263321998	-12.1449970560376	10.37706223111251	25.9071444202558	-1.446933154352233	0	0	0	-13.4871437158015	0	75.00970473409873	1.446722884924506	0	0
1.21	-0.00422406184694284	0.01029495124637919	90.00617308166676	0	0.9400000003403366	0	44.88068334404169	-10.00058506257852	0	59.50803899927377	1.038611211942519	-5.000044392709247	0	0	44.88068334404169	-10.00058506257852	0	59.50803899927377	1.038611211942519	-5.000044392709247	0	0	-0.02208570014563873	-0.009713042286729225	-0.01333011716434954	1.665473906762858	-12.44011368498145	10.49388082430415	26.77582991462818	-1.446641732590714	0	0	0	-13.48736784737369	0	75.00970197488978	1.446431463161764	0	0
1.22	-0.001356490358982479	0.007630325784537336	90.00935073421363	0	0.9400000003403366	0	44.88072089847327	-10.00058441809272	0	59.50816040248879	1.038613330828343	-5.000044328688845	0	0	44.88072089847327	-10.00058441809272	0	59.50816040248879	1.038613330828343	-5.000044328688845	0	0	-0.01727375466875382	-0.005012089408986126	-0.01267233759711078	1.685385258471714	-12.67792938541527	10.67617283348266	27.73714448096267	-1.446325071236805	0	0	0	-13.48761137770158	0	75.00969897660399	1.446114801806524	0	0
1.23	-0.003077902084955693	0.00941268868112677	90.007976370774	0	0.9400000003403366	0	44.88075709272066	-10.00058379757414	0	59.5082774388214	1.038615373497692	-5.000044267072281	0	0	44.88075709272066	-10.00058379757414	0	59.5082774388214	1.038615373497692	-5.000044267072281	0	0	-0.01934499610044792	-0.006282853518364821	-0.01361922140103287	1.721219910508675	-12.94213729056511	10.81970114124404	28.63721596884655	-1.446019827909804	0	0	0	-13.48784615510972	0	75.00969608691311	1.445809558478237	0	0
1.24	0.002493798319847442	0.00545019662670854	90.01013338900171	0	0.9400000003403366	0	44.88079737690695	-10.00058310735537	0	59.50840768871994	1.038617646787272	-5.00004419855548	0	0	44.88079737690695	-10.00058310735537	0	59.50840768871994	1.038617646787272	-5.00004419855548	0	0	-0.01237545259665557	-0.001705835900653882	-0.0106541892075916	1.719135752269678	-13.23821370924522	10.89799073878067	29.52878831837755	-1.445680079494024	0	0	0	-13.48810747411912	0	75.00969287068807	1.445469810061029	0	0
1.25	-0.01021269144697571	0.01224434286480619	90.00216724901685	0	0.9400000003403366	0	44.88082598522762	-10.00058261833626	0	59.50850031114178	1.038619263353494	-5.000044150041981	0	0	44.88082598522762	-10.00058261833626	0	59.50850031114178	1.038619263353494	-5.000044150041981	0	0	-0.03055195609461963	-0.01672255499951788	-0.01615404110124832	1.7587448687195	-13.48845057112147	11.06140950093118	30.40170739353181	-1.44543866271205	0	0	0	-13.48829324857654	0	75.00969058664541	1.445228393278035	0	0
1.26	0.001401037849434821	0.006017327890879717	90.01037444481329	0	0.9400000003403366	0	44.88086547437254	-10.00058194262736	0	59.50862799505048	1.038621491858103	-5.000044083004838	0	0	44.88086547437254	-10.00058194262736	0	59.50862799505048	1.038621491858103	-5.000044083004838	0	0	-0.0132228493032761	-0.002206657426826059	-0.01150110460222187	1.783460989160903	-13.73927855418175	11.14953909391364	31.28674571491022	-1.445105572929236	0	0	0	-13.48854946570589	0	75.00968743389512	1.444895303493822	0	0
